<svg width="143" height="22" viewBox="0 0 143 22" fill="none" xmlns="http://www.w3.org/2000/svg">
<path d="M80.5512 10.602C90.4242 10.92 100.293 10.993 110.169 11.019C120.537 11.046 131.198 12.041 141.529 10.828C142.212 10.748 142.212 9.41701 141.529 9.33601C131.77 8.19001 121.705 9.114 111.911 9.14C101.455 9.167 91.0052 9.22499 80.5512 9.56199C80.0742 9.57699 80.0742 10.587 80.5512 10.602Z" fill="#2DCD21"/>
<path d="M83.2702 6.81103C82.7582 7.23903 82.4873 7.89002 82.1313 8.55602C81.8023 9.17102 81.3383 9.82601 81.3383 10.658C81.3383 11.413 81.7313 12.085 81.9973 12.69C82.3293 13.446 82.5632 14.097 83.0902 14.596C83.5822 15.061 84.0362 14.297 83.9722 13.643C83.8682 12.584 83.3003 11.677 82.9023 10.784C82.6393 10.195 83.8303 8.25501 83.9073 7.49801C83.9563 7.00201 83.6302 6.51003 83.2702 6.81103Z" fill="#2DCD21"/>
<path d="M89.5542 6.81103C89.0422 7.23903 88.7713 7.89002 88.4153 8.55602C88.0863 9.17102 87.6223 9.82601 87.6223 10.658C87.6223 11.413 88.0152 12.085 88.2812 12.69C88.6133 13.446 88.8472 14.097 89.3742 14.596C89.8662 15.061 90.3203 14.297 90.2563 13.643C90.1523 12.584 89.5842 11.677 89.1862 10.784C88.9242 10.195 90.1143 8.25501 90.1913 7.49801C90.2403 7.00201 89.9142 6.51003 89.5542 6.81103Z" fill="#2DCD21"/>
<path d="M95.8383 6.81103C95.3263 7.23903 95.0552 7.89002 94.6992 8.55602C94.3702 9.17102 93.9062 9.82601 93.9062 10.658C93.9062 11.413 94.2992 12.085 94.5652 12.69C94.8972 13.446 95.1312 14.097 95.6582 14.596C96.1492 15.061 96.6043 14.297 96.5403 13.643C96.4363 12.584 95.8682 11.677 95.4702 10.784C95.2072 10.195 96.3983 8.25501 96.4753 7.49801C96.5243 7.00201 96.1983 6.51003 95.8383 6.81103Z" fill="#2DCD21"/>
<path d="M102.122 6.81103C101.61 7.23903 101.339 7.89002 100.983 8.55602C100.654 9.17102 100.19 9.82601 100.19 10.658C100.19 11.413 100.583 12.085 100.849 12.69C101.181 13.446 101.415 14.097 101.942 14.596C102.433 15.061 102.888 14.297 102.824 13.643C102.72 12.584 102.152 11.677 101.754 10.784C101.492 10.195 102.682 8.25501 102.759 7.49801C102.808 7.00201 102.482 6.51003 102.122 6.81103Z" fill="#2DCD21"/>
<path d="M108.406 6.81103C107.894 7.23903 107.623 7.89002 107.267 8.55602C106.938 9.17102 106.474 9.82601 106.474 10.658C106.474 11.413 106.867 12.085 107.133 12.69C107.465 13.446 107.699 14.097 108.226 14.596C108.718 15.061 109.172 14.297 109.108 13.643C109.004 12.584 108.436 11.677 108.038 10.784C107.776 10.195 108.966 8.25501 109.043 7.49801C109.092 7.00201 108.766 6.51003 108.406 6.81103Z" fill="#2DCD21"/>
<path d="M114.69 6.81103C114.178 7.23903 113.907 7.89002 113.551 8.55602C113.222 9.17102 112.758 9.82601 112.758 10.658C112.758 11.413 113.151 12.085 113.417 12.69C113.749 13.446 113.983 14.097 114.51 14.596C115.001 15.061 115.456 14.297 115.392 13.643C115.288 12.584 114.72 11.677 114.322 10.784C114.06 10.195 115.25 8.25501 115.327 7.49801C115.376 7.00201 115.05 6.51003 114.69 6.81103Z" fill="#2DCD21"/>
<path d="M120.974 6.81103C120.462 7.23903 120.191 7.89002 119.835 8.55602C119.506 9.17102 119.042 9.82601 119.042 10.658C119.042 11.413 119.435 12.085 119.701 12.69C120.033 13.446 120.267 14.097 120.794 14.596C121.285 15.061 121.74 14.297 121.676 13.643C121.572 12.584 121.004 11.677 120.606 10.784C120.344 10.195 121.534 8.25501 121.611 7.49801C121.66 7.00201 121.334 6.51003 120.974 6.81103Z" fill="#2DCD21"/>
<path d="M127.259 6.81103C126.747 7.23903 126.476 7.89002 126.12 8.55602C125.791 9.17102 125.327 9.82601 125.327 10.658C125.327 11.413 125.72 12.085 125.986 12.69C126.318 13.446 126.552 14.097 127.079 14.596C127.571 15.061 128.025 14.297 127.961 13.643C127.857 12.584 127.289 11.677 126.891 10.784C126.629 10.195 127.819 8.25501 127.896 7.49801C127.945 7.00201 127.618 6.51003 127.259 6.81103Z" fill="#2DCD21"/>
<path d="M133.543 6.81103C133.031 7.23903 132.76 7.89002 132.404 8.55602C132.075 9.17102 131.611 9.82601 131.611 10.658C131.611 11.413 132.004 12.085 132.27 12.69C132.602 13.446 132.836 14.097 133.363 14.596C133.855 15.061 134.309 14.297 134.245 13.643C134.141 12.584 133.573 11.677 133.175 10.784C132.913 10.195 134.103 8.25501 134.18 7.49801C134.229 7.00201 133.902 6.51003 133.543 6.81103Z" fill="#2DCD21"/>
<path d="M139.827 6.81103C139.315 7.23903 139.044 7.89002 138.688 8.55602C138.359 9.17102 137.895 9.82601 137.895 10.658C137.895 11.413 138.288 12.085 138.554 12.69C138.886 13.446 139.12 14.097 139.647 14.596C140.139 15.061 140.593 14.297 140.529 13.643C140.425 12.584 139.857 11.677 139.459 10.784C139.197 10.195 140.387 8.25501 140.464 7.49801C140.513 7.00201 140.186 6.51003 139.827 6.81103Z" fill="#2DCD21"/>
<path d="M61.4902 10.4331C51.6172 10.1151 41.7483 10.0421 31.8723 10.0161C21.5043 9.98906 10.8433 8.99407 0.51225 10.2071C-0.17075 10.2871 -0.17075 11.6181 0.51225 11.6991C10.2712 12.8451 20.3363 11.9211 30.1303 11.8951C40.5863 11.8681 51.0362 11.8101 61.4902 11.4731C61.9672 11.4581 61.9672 10.4491 61.4902 10.4331Z" fill="#2DCD21"/>
<path d="M58.7702 14.2239C59.2822 13.7959 59.5533 13.145 59.9103 12.479C60.2393 11.864 60.7033 11.2089 60.7033 10.3769C60.7033 9.62193 60.3103 8.94995 60.0443 8.34495C59.7123 7.58895 59.4782 6.93795 58.9512 6.43895C58.4592 5.97395 58.0053 6.73795 58.0693 7.39195C58.1733 8.45095 58.7413 9.35796 59.1393 10.251C59.4023 10.84 58.2113 12.7799 58.1343 13.5369C58.0843 14.0339 58.4112 14.5249 58.7702 14.2239Z" fill="#2DCD21"/>
<path d="M52.4862 14.2239C52.9982 13.7959 53.2692 13.145 53.6252 12.479C53.9542 11.864 54.4182 11.2089 54.4182 10.3769C54.4182 9.62193 54.0252 8.94995 53.7592 8.34495C53.4272 7.58895 53.1932 6.93795 52.6662 6.43895C52.1752 5.97395 51.7202 6.73795 51.7852 7.39195C51.8892 8.45095 52.4572 9.35796 52.8552 10.251C53.1172 10.84 51.9272 12.7799 51.8502 13.5369C51.8002 14.0339 52.1272 14.5249 52.4862 14.2239Z" fill="#2DCD21"/>
<path d="M46.2022 14.2239C46.7142 13.7959 46.9852 13.145 47.3412 12.479C47.6702 11.864 48.1342 11.2089 48.1342 10.3769C48.1342 9.62193 47.7412 8.94995 47.4752 8.34495C47.1432 7.58895 46.9092 6.93795 46.3822 6.43895C45.8912 5.97395 45.4362 6.73795 45.5002 7.39195C45.6042 8.45095 46.1722 9.35796 46.5702 10.251C46.8322 10.84 45.6422 12.7799 45.5652 13.5369C45.5162 14.0339 45.8432 14.5249 46.2022 14.2239Z" fill="#2DCD21"/>
<path d="M39.9182 14.2239C40.4302 13.7959 40.7013 13.145 41.0583 12.479C41.3873 11.864 41.8513 11.2089 41.8513 10.3769C41.8513 9.62193 41.4582 8.94995 41.1922 8.34495C40.8602 7.58895 40.6262 6.93795 40.0992 6.43895C39.6072 5.97395 39.1533 6.73795 39.2173 7.39195C39.3213 8.45095 39.8892 9.35796 40.2872 10.251C40.5492 10.84 39.3593 12.7799 39.2823 13.5369C39.2323 14.0339 39.5592 14.5249 39.9182 14.2239Z" fill="#2DCD21"/>
<path d="M33.6343 14.2239C34.1463 13.7959 34.4173 13.145 34.7733 12.479C35.1023 11.864 35.5663 11.2089 35.5663 10.3769C35.5663 9.62193 35.1733 8.94995 34.9073 8.34495C34.5753 7.58895 34.3412 6.93795 33.8142 6.43895C33.3222 5.97395 32.8683 6.73795 32.9323 7.39195C33.0363 8.45095 33.6043 9.35796 34.0023 10.251C34.2643 10.84 33.0743 12.7799 32.9973 13.5369C32.9483 14.0339 33.2753 14.5249 33.6343 14.2239Z" fill="#2DCD21"/>
<path d="M27.3502 14.2239C27.8622 13.7959 28.1333 13.145 28.4893 12.479C28.8183 11.864 29.2823 11.2089 29.2823 10.3769C29.2823 9.62193 28.8892 8.94995 28.6232 8.34495C28.2912 7.58895 28.0572 6.93795 27.5302 6.43895C27.0392 5.97395 26.5842 6.73795 26.6482 7.39195C26.7522 8.45095 27.3202 9.35796 27.7182 10.251C27.9802 10.84 26.7903 12.7799 26.7133 13.5369C26.6643 14.0339 26.9912 14.5249 27.3502 14.2239Z" fill="#2DCD21"/>
<path d="M21.0662 14.2239C21.5782 13.7959 21.8492 13.145 22.2052 12.479C22.5342 11.864 22.9982 11.2089 22.9982 10.3769C22.9982 9.62193 22.6052 8.94995 22.3392 8.34495C22.0072 7.58895 21.7732 6.93795 21.2462 6.43895C20.7552 5.97395 20.3003 6.73795 20.3643 7.39195C20.4683 8.45095 21.0362 9.35796 21.4342 10.251C21.6962 10.84 20.5062 12.7799 20.4292 13.5369C20.3802 14.0339 20.7072 14.5249 21.0662 14.2239Z" fill="#2DCD21"/>
<path d="M14.7823 14.2239C15.2943 13.7959 15.5652 13.145 15.9222 12.479C16.2512 11.864 16.7152 11.2089 16.7152 10.3769C16.7152 9.62193 16.3222 8.94995 16.0562 8.34495C15.7242 7.58895 15.4903 6.93795 14.9633 6.43895C14.4713 5.97395 14.0172 6.73795 14.0812 7.39195C14.1852 8.45095 14.7533 9.35796 15.1513 10.251C15.4143 10.84 14.2232 12.7799 14.1462 13.5369C14.0962 14.0339 14.4233 14.5249 14.7823 14.2239Z" fill="#2DCD21"/>
<path d="M8.49824 14.2239C9.01024 13.7959 9.28124 13.145 9.63724 12.479C9.96624 11.864 10.4302 11.2089 10.4302 10.3769C10.4302 9.62193 10.0372 8.94995 9.77125 8.34495C9.43925 7.58895 9.20526 6.93795 8.67826 6.43895C8.18626 5.97395 7.73224 6.73795 7.79624 7.39195C7.90024 8.45095 8.46825 9.35796 8.86625 10.251C9.12825 10.84 7.93824 12.7799 7.86124 13.5369C7.81224 14.0339 8.13924 14.5249 8.49824 14.2239Z" fill="#2DCD21"/>
<path d="M2.21423 14.2239C2.72623 13.7959 2.99724 13.145 3.35324 12.479C3.68224 11.864 4.14623 11.2089 4.14623 10.3769C4.14623 9.62193 3.75324 8.94995 3.48724 8.34495C3.15524 7.58895 2.92125 6.93795 2.39425 6.43895C1.90325 5.97395 1.44823 6.73795 1.51223 7.39195C1.61623 8.45095 2.18424 9.35796 2.58224 10.251C2.84424 10.84 1.65423 12.7799 1.57723 13.5369C1.52823 14.0339 1.85523 14.5249 2.21423 14.2239Z" fill="#2DCD21"/>
<path d="M71.2312 0.522C71.1202 7.043 70.6053 13.852 71.0713 20.344C71.1423 21.329 72.0893 21.329 72.1603 20.344C72.6263 13.852 72.1113 7.042 72.0003 0.522C71.9873 -0.174 71.2432 -0.174 71.2312 0.522Z" fill="#2DCD21"/>
<path d="M75.9692 3.043C72.8532 7.535 69.0722 11.901 66.5212 17.055C66.1412 17.823 66.9322 18.491 67.3762 17.982C69.1132 15.994 70.5272 13.34 72.0072 10.982C73.5092 8.59 75.0112 6.198 76.5132 3.806C76.8362 3.289 76.3172 2.541 75.9692 3.043Z" fill="#2DCD21"/>
<path d="M78.1563 9.89405C73.8623 9.73805 69.3473 9.01506 65.0753 9.66806C64.3753 9.77506 64.3753 11.0921 65.0753 11.1991C69.3483 11.8521 73.8623 11.1291 78.1563 10.9731C78.6513 10.9551 78.6513 9.91205 78.1563 9.89405Z" fill="#2DCD21"/>
<path d="M76.5122 17.06C75.0102 14.668 73.5083 12.276 72.0063 9.88399C70.5263 7.52699 69.1122 4.87199 67.3752 2.88399C66.9312 2.37599 66.1402 3.04397 66.5202 3.81197C69.0722 8.96597 72.8532 13.332 75.9682 17.824C76.3172 18.326 76.8362 17.578 76.5122 17.06Z" fill="#2DCD21"/>
</svg>
