<svg width="1440" height="28" viewBox="0 0 1440 28" fill="none" xmlns="http://www.w3.org/2000/svg">
<mask id="mask0_0_446" style="mask-type:alpha" maskUnits="userSpaceOnUse" x="-11" y="0" width="1586" height="29">
<path d="M-8.8228 3.1112C29.3322 5.02743 67.6262 3.83657 105.803 3.83657C143.99 3.83657 182.254 4.69726 220.428 3.34038C221.565 3.30068 221.565 0.9027 220.428 0.861199C182.252 -0.49568 143.99 0.364956 105.803 0.364956C67.6244 0.364956 29.3322 -0.824103 -8.8228 1.09032C-9.74844 1.13904 -9.74844 3.06609 -8.8228 3.1112Z" fill="#3AC53A"/>
<path d="M-8.8228 26.9094C29.3322 28.8256 67.6262 27.6348 105.803 27.6348C143.99 27.6348 182.254 28.4955 220.428 27.1386C221.565 27.0989 221.565 24.6991 220.428 24.6594C182.252 23.3025 143.99 24.1632 105.803 24.1632C67.6244 24.1632 29.3322 22.9741 -8.8228 24.8885C-9.74844 24.9372 -9.74844 26.8625 -8.8228 26.9094Z" fill="#3AC53A"/>
<path d="M4.44469 10.4189C1.20586 11.819 1.68941 18.8705 5.25844 18.8705C9.80001 18.8705 8.69757 8.57842 4.44469 10.4189Z" fill="#3AC53A"/>
<path d="M17.7201 10.4189C14.4813 11.819 14.9649 18.8705 18.5339 18.8705C23.0755 18.8705 21.973 8.57842 17.7201 10.4189Z" fill="#3AC53A"/>
<path d="M30.9925 10.4189C27.7537 11.819 28.2373 18.8705 31.8063 18.8705C36.3479 18.8705 35.2454 8.57842 30.9925 10.4189Z" fill="#3AC53A"/>
<path d="M44.268 10.4189C41.0292 11.819 41.5127 18.8705 45.0817 18.8705C49.6233 18.8705 48.5209 8.57842 44.268 10.4189Z" fill="#3AC53A"/>
<path d="M57.5384 10.4189C54.2996 11.819 54.7832 18.8705 58.3522 18.8705C62.8956 18.8705 61.7931 8.57842 57.5384 10.4189Z" fill="#3AC53A"/>
<path d="M70.8139 10.4189C67.5751 11.819 68.0586 18.8705 71.6276 18.8705C76.171 18.8705 75.0686 8.57842 70.8139 10.4189Z" fill="#3AC53A"/>
<path d="M84.0894 10.4189C80.8506 11.819 81.3341 18.8705 84.9032 18.8705C89.4465 18.8705 88.3441 8.57842 84.0894 10.4189Z" fill="#3AC53A"/>
<path d="M97.3649 10.4189C94.1261 11.819 94.6096 18.8705 98.1787 18.8705C102.722 18.8705 101.62 8.57842 97.3649 10.4189Z" fill="#3AC53A"/>
<path d="M110.64 10.4189C107.402 11.819 107.885 18.8705 111.454 18.8705C115.998 18.8705 114.895 8.57842 110.64 10.4189Z" fill="#3AC53A"/>
<path d="M123.913 10.4189C120.674 11.819 121.157 18.8705 124.726 18.8705C129.27 18.8705 128.167 8.57842 123.913 10.4189Z" fill="#3AC53A"/>
<path d="M137.188 10.4189C133.949 11.819 134.433 18.8705 138.002 18.8705C142.544 18.8705 141.443 8.57842 137.188 10.4189Z" fill="#3AC53A"/>
<path d="M150.464 10.4189C147.225 11.819 147.708 18.8705 151.277 18.8705C155.819 18.8705 154.718 8.57842 150.464 10.4189Z" fill="#3AC53A"/>
<path d="M163.739 10.4189C160.5 11.819 160.984 18.8705 164.553 18.8705C169.095 18.8705 167.994 8.57842 163.739 10.4189Z" fill="#3AC53A"/>
<path d="M177.012 10.4189C173.773 11.819 174.256 18.8705 177.825 18.8705C182.367 18.8705 181.264 8.57842 177.012 10.4189Z" fill="#3AC53A"/>
<path d="M190.287 10.4189C187.048 11.819 187.532 18.8705 191.101 18.8705C195.642 18.8705 194.54 8.57842 190.287 10.4189Z" fill="#3AC53A"/>
<path d="M203.563 10.4189C200.324 11.819 200.807 18.8705 204.376 18.8705C208.918 18.8705 207.815 8.57842 203.563 10.4189Z" fill="#3AC53A"/>
<path d="M216.838 10.4189C213.599 11.819 214.083 18.8705 217.652 18.8705C222.193 18.8705 221.091 8.57842 216.838 10.4189Z" fill="#3AC53A"/>
<path d="M442.177 3.1112C480.332 5.02743 518.626 3.83657 556.803 3.83657C594.99 3.83657 633.254 4.69726 671.428 3.34038C672.565 3.30068 672.565 0.9027 671.428 0.861199C633.252 -0.49568 594.99 0.364956 556.803 0.364956C518.624 0.364956 480.332 -0.824103 442.177 1.09032C441.252 1.13904 441.252 3.06609 442.177 3.1112Z" fill="#3AC53A"/>
<path d="M442.177 26.9094C480.332 28.8256 518.626 27.6348 556.803 27.6348C594.99 27.6348 633.254 28.4955 671.428 27.1386C672.565 27.0989 672.565 24.6991 671.428 24.6594C633.252 23.3025 594.99 24.1632 556.803 24.1632C518.624 24.1632 480.332 22.9741 442.177 24.8885C441.252 24.9372 441.252 26.8625 442.177 26.9094Z" fill="#3AC53A"/>
<path d="M442.169 10.4189C438.93 11.819 439.414 18.8705 442.983 18.8705C447.525 18.8705 446.422 8.57842 442.169 10.4189Z" fill="#3AC53A"/>
<path d="M455.445 10.4189C452.206 11.819 452.689 18.8705 456.258 18.8705C460.8 18.8705 459.698 8.57842 455.445 10.4189Z" fill="#3AC53A"/>
<path d="M468.72 10.4189C465.481 11.819 465.965 18.8705 469.534 18.8705C474.075 18.8705 472.973 8.57842 468.72 10.4189Z" fill="#3AC53A"/>
<path d="M481.993 10.4189C478.754 11.819 479.237 18.8705 482.806 18.8705C487.348 18.8705 486.245 8.57842 481.993 10.4189Z" fill="#3AC53A"/>
<path d="M495.268 10.4189C492.029 11.819 492.513 18.8705 496.082 18.8705C500.623 18.8705 499.521 8.57842 495.268 10.4189Z" fill="#3AC53A"/>
<path d="M508.538 10.4189C505.3 11.819 505.783 18.8705 509.352 18.8705C513.896 18.8705 512.793 8.57842 508.538 10.4189Z" fill="#3AC53A"/>
<path d="M521.814 10.4189C518.575 11.819 519.059 18.8705 522.628 18.8705C527.171 18.8705 526.069 8.57842 521.814 10.4189Z" fill="#3AC53A"/>
<path d="M535.089 10.4189C531.851 11.819 532.334 18.8705 535.903 18.8705C540.447 18.8705 539.344 8.57842 535.089 10.4189Z" fill="#3AC53A"/>
<path d="M548.365 10.4189C545.126 11.819 545.61 18.8705 549.179 18.8705C553.722 18.8705 552.62 8.57842 548.365 10.4189Z" fill="#3AC53A"/>
<path d="M561.64 10.4189C558.402 11.819 558.885 18.8705 562.454 18.8705C566.998 18.8705 565.895 8.57842 561.64 10.4189Z" fill="#3AC53A"/>
<path d="M574.913 10.4189C571.674 11.819 572.157 18.8705 575.727 18.8705C580.27 18.8705 579.167 8.57842 574.913 10.4189Z" fill="#3AC53A"/>
<path d="M588.188 10.4189C584.949 11.819 585.433 18.8705 589.002 18.8705C593.544 18.8705 592.443 8.57842 588.188 10.4189Z" fill="#3AC53A"/>
<path d="M601.464 10.4189C598.225 11.819 598.708 18.8705 602.277 18.8705C606.819 18.8705 605.718 8.57842 601.464 10.4189Z" fill="#3AC53A"/>
<path d="M614.739 10.4189C611.5 11.819 611.984 18.8705 615.553 18.8705C620.095 18.8705 618.994 8.57842 614.739 10.4189Z" fill="#3AC53A"/>
<path d="M628.012 10.4189C624.773 11.819 625.256 18.8705 628.825 18.8705C633.367 18.8705 632.264 8.57842 628.012 10.4189Z" fill="#3AC53A"/>
<path d="M641.287 10.4189C638.048 11.819 638.532 18.8705 642.101 18.8705C646.642 18.8705 645.54 8.57842 641.287 10.4189Z" fill="#3AC53A"/>
<path d="M654.563 10.4189C651.324 11.819 651.807 18.8705 655.376 18.8705C659.918 18.8705 658.815 8.57842 654.563 10.4189Z" fill="#3AC53A"/>
<path d="M667.838 10.4189C664.599 11.819 665.083 18.8705 668.652 18.8705C673.193 18.8705 672.091 8.57842 667.838 10.4189Z" fill="#3AC53A"/>
<path d="M893.177 3.1112C931.332 5.02743 969.626 3.83657 1007.8 3.83657C1045.99 3.83657 1084.25 4.69726 1122.43 3.34038C1123.57 3.30068 1123.57 0.9027 1122.43 0.861199C1084.25 -0.49568 1045.99 0.364956 1007.8 0.364956C969.624 0.364956 931.332 -0.824103 893.177 1.09032C892.252 1.13904 892.252 3.06609 893.177 3.1112Z" fill="#3AC53A"/>
<path d="M893.177 26.9094C931.332 28.8256 969.626 27.6348 1007.8 27.6348C1045.99 27.6348 1084.25 28.4955 1122.43 27.1386C1123.57 27.0989 1123.57 24.6991 1122.43 24.6594C1084.25 23.3025 1045.99 24.1632 1007.8 24.1632C969.624 24.1632 931.332 22.9741 893.177 24.8885C892.252 24.9372 892.252 26.8625 893.177 26.9094Z" fill="#3AC53A"/>
<path d="M893.169 10.4189C889.93 11.819 890.414 18.8705 893.983 18.8705C898.525 18.8705 897.422 8.57842 893.169 10.4189Z" fill="#3AC53A"/>
<path d="M906.445 10.4189C903.206 11.819 903.689 18.8705 907.258 18.8705C911.8 18.8705 910.698 8.57842 906.445 10.4189Z" fill="#3AC53A"/>
<path d="M919.72 10.4189C916.481 11.819 916.965 18.8705 920.534 18.8705C925.075 18.8705 923.973 8.57842 919.72 10.4189Z" fill="#3AC53A"/>
<path d="M932.993 10.4189C929.754 11.819 930.237 18.8705 933.806 18.8705C938.348 18.8705 937.245 8.57842 932.993 10.4189Z" fill="#3AC53A"/>
<path d="M946.268 10.4189C943.029 11.819 943.513 18.8705 947.082 18.8705C951.623 18.8705 950.521 8.57842 946.268 10.4189Z" fill="#3AC53A"/>
<path d="M959.538 10.4189C956.3 11.819 956.783 18.8705 960.352 18.8705C964.896 18.8705 963.793 8.57842 959.538 10.4189Z" fill="#3AC53A"/>
<path d="M972.814 10.4189C969.575 11.819 970.059 18.8705 973.628 18.8705C978.171 18.8705 977.069 8.57842 972.814 10.4189Z" fill="#3AC53A"/>
<path d="M986.089 10.4189C982.851 11.819 983.334 18.8705 986.903 18.8705C991.447 18.8705 990.344 8.57842 986.089 10.4189Z" fill="#3AC53A"/>
<path d="M999.365 10.4189C996.126 11.819 996.61 18.8705 1000.18 18.8705C1004.72 18.8705 1003.62 8.57842 999.365 10.4189Z" fill="#3AC53A"/>
<path d="M1012.64 10.4189C1009.4 11.819 1009.89 18.8705 1013.45 18.8705C1018 18.8705 1016.9 8.57842 1012.64 10.4189Z" fill="#3AC53A"/>
<path d="M1025.91 10.4189C1022.67 11.819 1023.16 18.8705 1026.73 18.8705C1031.27 18.8705 1030.17 8.57842 1025.91 10.4189Z" fill="#3AC53A"/>
<path d="M1039.19 10.4189C1035.95 11.819 1036.43 18.8705 1040 18.8705C1044.54 18.8705 1043.44 8.57842 1039.19 10.4189Z" fill="#3AC53A"/>
<path d="M1052.46 10.4189C1049.22 11.819 1049.71 18.8705 1053.28 18.8705C1057.82 18.8705 1056.72 8.57842 1052.46 10.4189Z" fill="#3AC53A"/>
<path d="M1065.74 10.4189C1062.5 11.819 1062.98 18.8705 1066.55 18.8705C1071.09 18.8705 1069.99 8.57842 1065.74 10.4189Z" fill="#3AC53A"/>
<path d="M1079.01 10.4189C1075.77 11.819 1076.26 18.8705 1079.83 18.8705C1084.37 18.8705 1083.26 8.57842 1079.01 10.4189Z" fill="#3AC53A"/>
<path d="M1092.29 10.4189C1089.05 11.819 1089.53 18.8705 1093.1 18.8705C1097.64 18.8705 1096.54 8.57842 1092.29 10.4189Z" fill="#3AC53A"/>
<path d="M1105.56 10.4189C1102.32 11.819 1102.81 18.8705 1106.38 18.8705C1110.92 18.8705 1109.82 8.57842 1105.56 10.4189Z" fill="#3AC53A"/>
<path d="M1118.84 10.4189C1115.6 11.819 1116.08 18.8705 1119.65 18.8705C1124.19 18.8705 1123.09 8.57842 1118.84 10.4189Z" fill="#3AC53A"/>
<path d="M216.994 3.1112C255.149 5.02743 293.443 3.83657 331.619 3.83657C369.807 3.83657 408.07 4.69726 446.245 3.34038C447.382 3.30068 447.382 0.9027 446.245 0.861199C408.068 -0.49568 369.807 0.364956 331.619 0.364956C293.441 0.364956 255.149 -0.824103 216.994 1.09032C216.068 1.13904 216.068 3.06609 216.994 3.1112Z" fill="#3AC53A"/>
<path d="M216.994 26.9094C255.149 28.8256 293.443 27.6348 331.619 27.6348C369.807 27.6348 408.07 28.4955 446.245 27.1386C447.382 27.0989 447.382 24.6991 446.245 24.6594C408.068 23.3025 369.807 24.1632 331.619 24.1632C293.441 24.1632 255.149 22.9741 216.994 24.8885C216.068 24.9372 216.068 26.8625 216.994 26.9094Z" fill="#3AC53A"/>
<path d="M216.986 10.4189C213.747 11.819 214.23 18.8705 217.799 18.8705C222.341 18.8705 221.238 8.57842 216.986 10.4189Z" fill="#3AC53A"/>
<path d="M230.261 10.4189C227.022 11.819 227.506 18.8705 231.075 18.8705C235.616 18.8705 234.514 8.57842 230.261 10.4189Z" fill="#3AC53A"/>
<path d="M243.537 10.4189C240.298 11.819 240.781 18.8705 244.35 18.8705C248.892 18.8705 247.789 8.57842 243.537 10.4189Z" fill="#3AC53A"/>
<path d="M256.809 10.4189C253.57 11.819 254.054 18.8705 257.623 18.8705C262.164 18.8705 261.062 8.57842 256.809 10.4189Z" fill="#3AC53A"/>
<path d="M270.084 10.4189C266.846 11.819 267.329 18.8705 270.898 18.8705C275.44 18.8705 274.337 8.57842 270.084 10.4189Z" fill="#3AC53A"/>
<path d="M283.355 10.4189C280.116 11.819 280.6 18.8705 284.169 18.8705C288.712 18.8705 287.609 8.57842 283.355 10.4189Z" fill="#3AC53A"/>
<path d="M296.63 10.4189C293.392 11.819 293.875 18.8705 297.444 18.8705C301.987 18.8705 300.885 8.57842 296.63 10.4189Z" fill="#3AC53A"/>
<path d="M309.906 10.4189C306.667 11.819 307.151 18.8705 310.72 18.8705C315.263 18.8705 314.16 8.57842 309.906 10.4189Z" fill="#3AC53A"/>
<path d="M323.181 10.4189C319.942 11.819 320.426 18.8705 323.995 18.8705C328.538 18.8705 327.436 8.57842 323.181 10.4189Z" fill="#3AC53A"/>
<path d="M336.457 10.4189C333.218 11.819 333.702 18.8705 337.271 18.8705C341.814 18.8705 340.711 8.57842 336.457 10.4189Z" fill="#3AC53A"/>
<path d="M349.729 10.4189C346.49 11.819 346.974 18.8705 350.543 18.8705C355.086 18.8705 353.984 8.57842 349.729 10.4189Z" fill="#3AC53A"/>
<path d="M363.005 10.4189C359.766 11.819 360.249 18.8705 363.818 18.8705C368.36 18.8705 367.259 8.57842 363.005 10.4189Z" fill="#3AC53A"/>
<path d="M376.28 10.4189C373.041 11.819 373.525 18.8705 377.094 18.8705C381.635 18.8705 380.535 8.57842 376.28 10.4189Z" fill="#3AC53A"/>
<path d="M389.556 10.4189C386.317 11.819 386.8 18.8705 390.369 18.8705C394.911 18.8705 393.81 8.57842 389.556 10.4189Z" fill="#3AC53A"/>
<path d="M402.828 10.4189C399.589 11.819 400.073 18.8705 403.642 18.8705C408.183 18.8705 407.081 8.57842 402.828 10.4189Z" fill="#3AC53A"/>
<path d="M416.103 10.4189C412.865 11.819 413.348 18.8705 416.917 18.8705C421.459 18.8705 420.356 8.57842 416.103 10.4189Z" fill="#3AC53A"/>
<path d="M429.379 10.4189C426.14 11.819 426.624 18.8705 430.193 18.8705C434.734 18.8705 433.632 8.57842 429.379 10.4189Z" fill="#3AC53A"/>
<path d="M442.654 10.4189C439.416 11.819 439.899 18.8705 443.468 18.8705C448.01 18.8705 446.907 8.57842 442.654 10.4189Z" fill="#3AC53A"/>
<path d="M667.994 3.1112C706.149 5.02743 744.443 3.83657 782.619 3.83657C820.807 3.83657 859.07 4.69726 897.245 3.34038C898.382 3.30068 898.382 0.9027 897.245 0.861199C859.068 -0.49568 820.807 0.364956 782.619 0.364956C744.441 0.364956 706.149 -0.824103 667.994 1.09032C667.068 1.13904 667.068 3.06609 667.994 3.1112Z" fill="#3AC53A"/>
<path d="M667.994 26.9094C706.149 28.8256 744.443 27.6348 782.619 27.6348C820.807 27.6348 859.07 28.4955 897.245 27.1386C898.382 27.0989 898.382 24.6991 897.245 24.6594C859.068 23.3025 820.807 24.1632 782.619 24.1632C744.441 24.1632 706.149 22.9741 667.994 24.8885C667.068 24.9372 667.068 26.8625 667.994 26.9094Z" fill="#3AC53A"/>
<path d="M667.986 10.4189C664.747 11.819 665.23 18.8705 668.799 18.8705C673.341 18.8705 672.238 8.57842 667.986 10.4189Z" fill="#3AC53A"/>
<path d="M681.261 10.4189C678.022 11.819 678.506 18.8705 682.075 18.8705C686.616 18.8705 685.514 8.57842 681.261 10.4189Z" fill="#3AC53A"/>
<path d="M694.537 10.4189C691.298 11.819 691.781 18.8705 695.35 18.8705C699.892 18.8705 698.789 8.57842 694.537 10.4189Z" fill="#3AC53A"/>
<path d="M707.809 10.4189C704.57 11.819 705.054 18.8705 708.623 18.8705C713.164 18.8705 712.062 8.57842 707.809 10.4189Z" fill="#3AC53A"/>
<path d="M721.084 10.4189C717.846 11.819 718.329 18.8705 721.898 18.8705C726.44 18.8705 725.337 8.57842 721.084 10.4189Z" fill="#3AC53A"/>
<path d="M734.355 10.4189C731.116 11.819 731.6 18.8705 735.169 18.8705C739.712 18.8705 738.61 8.57842 734.355 10.4189Z" fill="#3AC53A"/>
<path d="M747.63 10.4189C744.391 11.819 744.875 18.8705 748.444 18.8705C752.987 18.8705 751.885 8.57842 747.63 10.4189Z" fill="#3AC53A"/>
<path d="M760.906 10.4189C757.667 11.819 758.151 18.8705 761.72 18.8705C766.263 18.8705 765.161 8.57842 760.906 10.4189Z" fill="#3AC53A"/>
<path d="M774.181 10.4189C770.942 11.819 771.426 18.8705 774.995 18.8705C779.538 18.8705 778.436 8.57842 774.181 10.4189Z" fill="#3AC53A"/>
<path d="M787.457 10.4189C784.218 11.819 784.702 18.8705 788.271 18.8705C792.814 18.8705 791.711 8.57842 787.457 10.4189Z" fill="#3AC53A"/>
<path d="M800.729 10.4189C797.49 11.819 797.974 18.8705 801.543 18.8705C806.086 18.8705 804.984 8.57842 800.729 10.4189Z" fill="#3AC53A"/>
<path d="M814.005 10.4189C810.766 11.819 811.249 18.8705 814.818 18.8705C819.36 18.8705 818.259 8.57842 814.005 10.4189Z" fill="#3AC53A"/>
<path d="M827.28 10.4189C824.041 11.819 824.525 18.8705 828.094 18.8705C832.635 18.8705 831.535 8.57842 827.28 10.4189Z" fill="#3AC53A"/>
<path d="M840.556 10.4189C837.317 11.819 837.8 18.8705 841.369 18.8705C845.911 18.8705 844.81 8.57842 840.556 10.4189Z" fill="#3AC53A"/>
<path d="M853.828 10.4189C850.589 11.819 851.073 18.8705 854.642 18.8705C859.183 18.8705 858.081 8.57842 853.828 10.4189Z" fill="#3AC53A"/>
<path d="M867.103 10.4189C863.865 11.819 864.348 18.8705 867.917 18.8705C872.459 18.8705 871.356 8.57842 867.103 10.4189Z" fill="#3AC53A"/>
<path d="M880.379 10.4189C877.14 11.819 877.624 18.8705 881.193 18.8705C885.734 18.8705 884.632 8.57842 880.379 10.4189Z" fill="#3AC53A"/>
<path d="M893.654 10.4189C890.416 11.819 890.899 18.8705 894.468 18.8705C899.01 18.8705 897.907 8.57842 893.654 10.4189Z" fill="#3AC53A"/>
<path d="M1118.99 3.1112C1157.15 5.02743 1195.44 3.83657 1233.62 3.83657C1271.81 3.83657 1310.07 4.69726 1348.24 3.34038C1349.38 3.30068 1349.38 0.9027 1348.24 0.861199C1310.07 -0.49568 1271.81 0.364956 1233.62 0.364956C1195.44 0.364956 1157.15 -0.824103 1118.99 1.09032C1118.07 1.13904 1118.07 3.06609 1118.99 3.1112Z" fill="#3AC53A"/>
<path d="M1118.99 26.9094C1157.15 28.8256 1195.44 27.6348 1233.62 27.6348C1271.81 27.6348 1310.07 28.4955 1348.24 27.1386C1349.38 27.0989 1349.38 24.6991 1348.24 24.6594C1310.07 23.3025 1271.81 24.1632 1233.62 24.1632C1195.44 24.1632 1157.15 22.9741 1118.99 24.8885C1118.07 24.9372 1118.07 26.8625 1118.99 26.9094Z" fill="#3AC53A"/>
<path d="M1118.99 10.4189C1115.75 11.819 1116.23 18.8705 1119.8 18.8705C1124.34 18.8705 1123.24 8.57842 1118.99 10.4189Z" fill="#3AC53A"/>
<path d="M1132.26 10.4189C1129.02 11.819 1129.51 18.8705 1133.07 18.8705C1137.62 18.8705 1136.51 8.57842 1132.26 10.4189Z" fill="#3AC53A"/>
<path d="M1145.54 10.4189C1142.3 11.819 1142.78 18.8705 1146.35 18.8705C1150.89 18.8705 1149.79 8.57842 1145.54 10.4189Z" fill="#3AC53A"/>
<path d="M1158.81 10.4189C1155.57 11.819 1156.05 18.8705 1159.62 18.8705C1164.16 18.8705 1163.06 8.57842 1158.81 10.4189Z" fill="#3AC53A"/>
<path d="M1172.08 10.4189C1168.85 11.819 1169.33 18.8705 1172.9 18.8705C1177.44 18.8705 1176.34 8.57842 1172.08 10.4189Z" fill="#3AC53A"/>
<path d="M1185.35 10.4189C1182.12 11.819 1182.6 18.8705 1186.17 18.8705C1190.71 18.8705 1189.61 8.57842 1185.35 10.4189Z" fill="#3AC53A"/>
<path d="M1198.63 10.4189C1195.39 11.819 1195.88 18.8705 1199.44 18.8705C1203.99 18.8705 1202.89 8.57842 1198.63 10.4189Z" fill="#3AC53A"/>
<path d="M1211.91 10.4189C1208.67 11.819 1209.15 18.8705 1212.72 18.8705C1217.26 18.8705 1216.16 8.57842 1211.91 10.4189Z" fill="#3AC53A"/>
<path d="M1225.18 10.4189C1221.94 11.819 1222.43 18.8705 1226 18.8705C1230.54 18.8705 1229.44 8.57842 1225.18 10.4189Z" fill="#3AC53A"/>
<path d="M1238.46 10.4189C1235.22 11.819 1235.7 18.8705 1239.27 18.8705C1243.81 18.8705 1242.71 8.57842 1238.46 10.4189Z" fill="#3AC53A"/>
<path d="M1251.73 10.4189C1248.49 11.819 1248.97 18.8705 1252.54 18.8705C1257.09 18.8705 1255.98 8.57842 1251.73 10.4189Z" fill="#3AC53A"/>
<path d="M1265 10.4189C1261.77 11.819 1262.25 18.8705 1265.82 18.8705C1270.36 18.8705 1269.26 8.57842 1265 10.4189Z" fill="#3AC53A"/>
<path d="M1278.28 10.4189C1275.04 11.819 1275.52 18.8705 1279.09 18.8705C1283.64 18.8705 1282.53 8.57842 1278.28 10.4189Z" fill="#3AC53A"/>
<path d="M1291.56 10.4189C1288.32 11.819 1288.8 18.8705 1292.37 18.8705C1296.91 18.8705 1295.81 8.57842 1291.56 10.4189Z" fill="#3AC53A"/>
<path d="M1304.83 10.4189C1301.59 11.819 1302.07 18.8705 1305.64 18.8705C1310.18 18.8705 1309.08 8.57842 1304.83 10.4189Z" fill="#3AC53A"/>
<path d="M1318.1 10.4189C1314.86 11.819 1315.35 18.8705 1318.92 18.8705C1323.46 18.8705 1322.36 8.57842 1318.1 10.4189Z" fill="#3AC53A"/>
<path d="M1331.38 10.4189C1328.14 11.819 1328.62 18.8705 1332.19 18.8705C1336.73 18.8705 1335.63 8.57842 1331.38 10.4189Z" fill="#3AC53A"/>
<path d="M1344.65 10.4189C1341.42 11.819 1341.9 18.8705 1345.47 18.8705C1350.01 18.8705 1348.91 8.57842 1344.65 10.4189Z" fill="#3AC53A"/>
<path d="M1344.18 3.1112C1382.33 5.02743 1420.63 3.83657 1458.8 3.83657C1496.99 3.83657 1535.25 4.69726 1573.43 3.34038C1574.57 3.30068 1574.57 0.9027 1573.43 0.861199C1535.25 -0.49568 1496.99 0.364956 1458.8 0.364956C1420.62 0.364956 1382.33 -0.824103 1344.18 1.09032C1343.25 1.13904 1343.25 3.06609 1344.18 3.1112Z" fill="#3AC53A"/>
<path d="M1344.18 26.9094C1382.33 28.8256 1420.63 27.6348 1458.8 27.6348C1496.99 27.6348 1535.25 28.4955 1573.43 27.1386C1574.57 27.0989 1574.57 24.6991 1573.43 24.6594C1535.25 23.3025 1496.99 24.1632 1458.8 24.1632C1420.62 24.1632 1382.33 22.9741 1344.18 24.8885C1343.25 24.9372 1343.25 26.8625 1344.18 26.9094Z" fill="#3AC53A"/>
<path d="M1344.17 10.4189C1340.93 11.819 1341.41 18.8705 1344.98 18.8705C1349.52 18.8705 1348.42 8.57842 1344.17 10.4189Z" fill="#3AC53A"/>
<path d="M1357.44 10.4189C1354.21 11.819 1354.69 18.8705 1358.26 18.8705C1362.8 18.8705 1361.7 8.57842 1357.44 10.4189Z" fill="#3AC53A"/>
<path d="M1370.72 10.4189C1367.48 11.819 1367.96 18.8705 1371.53 18.8705C1376.08 18.8705 1374.97 8.57842 1370.72 10.4189Z" fill="#3AC53A"/>
<path d="M1383.99 10.4189C1380.75 11.819 1381.24 18.8705 1384.81 18.8705C1389.35 18.8705 1388.25 8.57842 1383.99 10.4189Z" fill="#3AC53A"/>
<path d="M1397.27 10.4189C1394.03 11.819 1394.51 18.8705 1398.08 18.8705C1402.62 18.8705 1401.52 8.57842 1397.27 10.4189Z" fill="#3AC53A"/>
<path d="M1410.54 10.4189C1407.3 11.819 1407.78 18.8705 1411.35 18.8705C1415.9 18.8705 1414.79 8.57842 1410.54 10.4189Z" fill="#3AC53A"/>
<path d="M1423.81 10.4189C1420.58 11.819 1421.06 18.8705 1424.63 18.8705C1429.17 18.8705 1428.07 8.57842 1423.81 10.4189Z" fill="#3AC53A"/>
<path d="M1437.09 10.4189C1433.85 11.819 1434.33 18.8705 1437.9 18.8705C1442.45 18.8705 1441.34 8.57842 1437.09 10.4189Z" fill="#3AC53A"/>
</mask>
<g mask="url(#mask0_0_446)">
<rect x="-1" width="1440" height="28" fill="#2DCD21"/>
</g>
</svg>
